<svg width="512" height="512" viewBox="0 0 512 512" fill="none" xmlns="http://www.w3.org/2000/svg">
<circle cx="256" cy="256" r="246" stroke="white" stroke-width="20"/>
<path d="M393.675 285.246V387.002H334.684V292.061C334.684 268.211 326.151 251.935 304.798 251.935C288.498 251.935 278.798 262.904 274.53 273.515C272.974 277.308 272.573 282.588 272.573 287.898V387.002H213.562C213.562 387.002 214.357 226.204 213.562 209.544H272.568V234.698C272.448 234.886 272.292 235.089 272.18 235.271H272.568V234.698C280.407 222.623 294.408 205.375 325.745 205.375C364.57 205.374 393.675 230.738 393.675 285.246ZM151.834 124C131.646 124 118.442 137.242 118.442 154.655C118.442 171.688 131.264 185.332 151.05 185.332H151.445C172.023 185.332 184.821 171.691 184.821 154.655C184.434 137.242 172.023 124 151.834 124ZM121.946 387.002H180.935V209.544H121.946V387.002Z" fill="white"/>
</svg>
