<svg width="512" height="512" viewBox="0 0 512 512" fill="none" xmlns="http://www.w3.org/2000/svg">
<path d="M384 0H128C57.3075 0 0 57.3075 0 128V384C0 454.692 57.3075 512 128 512H384C454.692 512 512 454.692 512 384V128C512 57.3075 454.692 0 384 0Z" fill="#121212"/>
<path d="M239.872 230H170.872L146.854 391.263C146.404 394.285 148.745 397 151.8 397H210.69C213.166 397 215.27 395.186 215.635 392.737L239.872 230Z" fill="url(#paint0_linear_105_2)"/>
<path d="M192.31 115C189.833 115 187.73 116.814 187.365 119.263L177.426 186H273V186.022C284.686 186.545 294 196.185 294 208C294 219.815 284.686 229.455 273 229.978V230H170.872L160.298 301H160.286L155 336.495C161.217 315.954 180.294 301 202.863 301H285C336.362 301 378 259.362 378 208C378 156.638 336.362 115 285 115H192.31Z" fill="#78FFD6"/>
<defs>
<linearGradient id="paint0_linear_105_2" x1="146" y1="397" x2="188" y2="115" gradientUnits="userSpaceOnUse">
<stop stop-color="#78FFD6"/>
<stop offset="1" stop-color="#007991"/>
</linearGradient>
</defs>
</svg>
