<svg width="512" height="512" viewBox="0 0 512 512" fill="none" xmlns="http://www.w3.org/2000/svg">
<circle cx="256" cy="256" r="246" stroke="white" stroke-width="20"/>
<path d="M175.175 332.901C179.951 332.901 184.042 330.012 187.437 324.222C218.5 269.141 234.658 240.47 235.919 238.199L204.984 184.252C201.713 178.593 197.562 175.763 192.535 175.763H147.447C144.55 175.763 142.544 176.706 141.41 178.592C140.025 180.479 140.089 182.806 141.598 185.569L171.968 238.199C172.091 238.333 172.091 238.39 171.968 238.39L124.241 322.904C122.987 325.299 122.987 327.56 124.241 329.691C125.495 331.835 127.449 332.901 130.088 332.901H175.175Z" fill="white"/>
<path d="M382.114 114.263H336.652C331.749 114.263 327.721 117.092 324.581 122.752C260.065 237.195 226.674 296.434 224.409 300.451L288.357 417.791C291.374 423.451 295.525 426.28 300.806 426.28H345.89C348.656 426.28 350.67 425.337 351.928 423.451C353.181 421.306 353.121 418.978 351.74 416.467L288.361 300.451V300.268L387.964 124.073C389.345 121.434 389.345 119.113 387.964 117.096C386.83 115.206 384.88 114.263 382.114 114.263Z" fill="white"/>
</svg>
